<?xml version="1.0" encoding="UTF-8"?>
<svg role="image" width="121px" height="31px" viewBox="0 0 121 31" version="1.1" xmlns="http://www.w3.org/2000/svg" xmlns:xlink="http://www.w3.org/1999/xlink">
    <!-- Generator: Sketch 52.4 (67378) - http://www.bohemiancoding.com/sketch -->
    <title>Desktop</title>
    <desc>Created with Sketch.</desc>
    <defs>
        <polygon id="path-1" points="0 30.8849423 120.868427 30.8849423 120.868427 0 0 0"></polygon>
    </defs>
    <g id="Page-1" stroke="none" stroke-width="1" fill="none" fill-rule="evenodd">
        <g id="MT_Desktop_Movies_Subpage" transform="translate(-114.000000, -105.000000)">
            <g id="Desktop" transform="translate(114.000000, 105.000000)">
                <path d="M119.180903,1.57561971 L119.338321,1.57561971 C119.521876,1.57561971 119.670483,1.51361971 119.670483,1.36264375 C119.670483,1.22970144 119.574447,1.14087452 119.364606,1.14087452 C119.277086,1.14087452 119.215852,1.14981683 119.180903,1.1586101 L119.180903,1.57561971 Z M119.172092,2.40099471 L118.83993,2.40099471 L118.83993,0.945634135 C118.971062,0.919105288 119.154618,0.901369712 119.390744,0.901369712 C119.661672,0.901369712 119.784141,0.945634135 119.889135,1.00763413 C119.967697,1.06978317 120.028931,1.18528798 120.028931,1.3271726 C120.028931,1.48694183 119.906609,1.61109087 119.731717,1.66444663 L119.731717,1.68218221 C119.87166,1.73538894 119.950222,1.84195144 119.993982,2.03719183 C120.037742,2.25896106 120.064027,2.34778798 120.098976,2.40099471 L119.740528,2.40099471 C119.696768,2.34778798 119.670483,2.2145476 119.62687,2.0459851 C119.600585,1.88621587 119.513212,1.81527356 119.329657,1.81527356 L119.172092,1.81527356 L119.172092,2.40099471 Z M118.289115,1.63776875 C118.289115,2.28563894 118.761368,2.80026875 119.408219,2.80026875 C120.037742,2.80026875 120.501183,2.28563894 120.501183,1.64671106 C120.501183,0.998989904 120.037742,0.47526875 119.399408,0.47526875 C118.761368,0.47526875 118.289115,0.998989904 118.289115,1.63776875 Z M120.868295,1.63776875 C120.868295,2.46299471 120.230108,3.1108649 119.399408,3.1108649 C118.577665,3.1108649 117.922004,2.46299471 117.922004,1.63776875 C117.922004,0.830278365 118.577665,0.182408173 119.399408,0.182408173 C120.230108,0.182408173 120.868295,0.830278365 120.868295,1.63776875 Z" id="Fill-1" fill="#171C20"></path>
                <path d="M34.5357201,16.8995159 L31.5759192,16.8995159 L31.5759192,20.0141216 L30.3506473,20.0141216 L30.3506473,22.2075207 L31.5759192,22.2075207 L31.5759192,27.8681505 C31.5759192,30.3354822 32.1599204,30.7276024 34.2066413,30.7276024 C34.7730211,30.7276024 35.3385199,30.6885543 35.9062214,30.6112034 L35.9062214,28.4944101 C35.7775854,28.5149774 35.6131194,28.5339053 35.4855114,28.5339053 C34.7913767,28.5339053 34.5357201,28.2993187 34.5357201,27.5551697 L34.5357201,22.2075207 L35.9062214,22.2075207 L35.9062214,20.0141216 L34.5357201,20.0141216 L34.5357201,16.8995159" id="Fill-3" fill="#171C20"></path>
                <path d="M45.3879517,19.7405615 C42.17176,19.7405615 41.3688133,21.9527394 41.3688133,24.9297827 C41.3688133,28.0835856 41.6600063,30.8849125 45.3879517,30.8849125 C48.0744748,30.8849125 49.2803631,29.5723308 49.2976908,26.3021288 L46.55801,26.3021288 C46.520124,28.1631721 46.3193874,28.8089558 45.443459,28.8089558 C44.455635,28.8089558 44.3286143,27.7124798 44.3286143,25.3216048 C44.3286143,23.148624 44.455635,21.8159221 45.443459,21.8159221 C46.2281968,21.8159221 46.55801,22.4630471 46.55801,24.0093212 L49.2976908,24.0093212 C49.2976908,21.4840135 48.4945973,19.7405615 45.3879517,19.7405615" id="Fill-5" fill="#171C20"></path>
                <polygon id="Fill-7" fill="#171C20" points="53.4458468 16.6258812 50.4853117 16.6258812 50.4853117 30.6112034 53.4458468 30.6112034 53.4458468 27.7311841 54.2129633 26.6153332 56.0574791 30.6112034 59.2921733 30.6112034 56.114308 24.2840736 58.9447388 20.0141216 55.6938917 20.0141216 53.482558 23.8141553 53.4458468 23.8141553"></polygon>
                <path d="M63.4401678,19.7405615 C60.2235356,19.7405615 59.4191205,21.9527394 59.4191205,24.9297827 C59.4191205,28.0835856 59.7129567,30.8849125 63.4401678,30.8849125 C65.8874809,30.8849125 67.2224458,29.6112298 67.277072,26.9871096 L64.5354822,26.9871096 C64.4629409,28.3180231 64.2266678,28.9256529 63.4585234,28.9256529 C62.5993353,28.9256529 62.3806836,28.1233788 62.3806836,26.4787394 L62.3806836,25.8311673 L67.368703,25.8311673 C67.368703,22.2286096 67.1130465,19.7405615 63.4401678,19.7405615 M62.3806836,23.9906913 C62.3806836,22.559326 62.5454433,21.699076 63.5128559,21.699076 C64.3363608,21.699076 64.517714,22.50135 64.517714,23.9906913 L62.3806836,23.9906913" id="Fill-9" fill="#171C20"></path>
                <path d="M71.8798591,16.8995159 L68.9212329,16.8995159 L68.9212329,20.0141216 L67.6968421,20.0141216 L67.6968421,22.2075207 L68.9212329,22.2075207 L68.9212329,27.8681505 C68.9212329,30.3354822 69.5056746,30.7276024 71.5516613,30.7276024 C72.1183348,30.7276024 72.6848615,30.6885543 73.2515351,30.6112034 L73.2515351,28.4944101 C73.1243676,28.5149774 72.9597547,28.5339053 72.8312657,28.5339053 C72.1372778,28.5339053 71.8798591,28.2993187 71.8798591,27.5551697 L71.8798591,22.2075207 L73.2515351,22.2075207 L73.2515351,20.0141216 L71.8798591,20.0141216 L71.8798591,16.8995159" id="Fill-11" fill="#171C20"></path>
                <path d="M77.7649819,19.7405615 C75.3890353,19.7405615 74.0001785,20.8182587 74.0001785,22.9328163 C74.0001785,25.1660087 75.169062,25.6737827 77.6003691,26.5557923 C78.513596,26.8890423 78.7323945,27.3592587 78.7323945,27.8491481 C78.7323945,28.4564798 78.3685135,28.9256529 77.6739382,28.9256529 C77.1984552,28.9256529 76.9242962,28.7305615 76.7585086,28.4354654 C76.6132792,28.1233788 76.5771555,27.7124798 76.5592404,27.2413692 L73.926903,27.2413692 L73.926903,27.7124798 C73.926903,29.8270375 75.0424819,30.8849125 77.6900911,30.8849125 C80.1410754,30.8849125 81.4741312,29.5531048 81.4741312,27.4179798 C81.4741312,23.3045183 76.7423557,24.558826 76.7423557,22.6787058 C76.7423557,22.1104221 76.9599795,21.699076 77.7466263,21.699076 C78.3685135,21.699076 78.7146263,21.9527394 78.7146263,22.87335 L78.7146263,23.0702298 L81.3453484,23.0702298 L81.3453484,22.7171577 C81.3453484,21.1893644 80.5429892,19.7405615 77.7649819,19.7405615" id="Fill-13" fill="#171C20"></path>
                <mask id="mask-2" fill="white">
                    <use xlink:href="#path-1"></use>
                </mask>
                <g id="Clip-16"></g>
                <polygon id="Fill-15" fill="#171C20" mask="url(#mask-2)" points="82.8797136 30.6111587 85.7301153 30.6111587 85.7301153 27.0841635 82.8797136 27.0841635"></polygon>
                <path d="M91.1936618,19.7405615 C87.9783511,19.7405615 87.173936,21.9527394 87.173936,24.9297827 C87.173936,28.0835856 87.467038,30.8849125 91.1936618,30.8849125 C93.8797443,30.8849125 95.0854858,29.5723308 95.1045756,26.3021288 L92.3629858,26.3021288 C92.3265683,28.1631721 92.1256848,28.8089558 91.2478475,28.8089558 C90.2620792,28.8089558 90.133737,27.7124798 90.133737,25.3216048 C90.133737,23.148624 90.2620792,21.8159221 91.2478475,21.8159221 C92.034788,21.8159221 92.3629858,22.4630471 92.3629858,24.0093212 L95.1045756,24.0093212 C95.1045756,21.4840135 94.2998669,19.7405615 91.1936618,19.7405615" id="Fill-17" fill="#171C20" mask="url(#mask-2)"></path>
                <path d="M100.036603,19.7405615 C96.6185,19.7405615 95.9618107,22.1678019 95.9618107,25.3424702 C95.9618107,28.5149029 96.4186444,30.8849125 100.036603,30.8849125 C103.453825,30.8849125 104.111689,28.4564798 104.111689,25.2828548 C104.111689,22.1104221 103.655296,19.7405615 100.036603,19.7405615 M100.055106,28.8089558 C99.1775619,28.8089558 98.9217585,27.8883452 98.9217585,25.302826 C98.9217585,22.7360856 99.1775619,21.8159221 100.055106,21.8159221 C100.968626,21.8159221 101.151595,22.6973356 101.151595,25.3216048 C101.151595,27.9281385 100.968626,28.8089558 100.055106,28.8089558" id="Fill-18" fill="#171C20" mask="url(#mask-2)"></path>
                <path d="M115.659788,19.7405615 C114.562859,19.7405615 113.905435,20.1320856 113.211007,21.3653788 C112.772088,19.9164269 111.638741,19.7405615 110.780434,19.7405615 C109.683211,19.7405615 108.825638,20.3268788 108.405222,21.2683548 L108.369245,21.2683548 L108.369245,20.0141962 L105.517375,20.0141962 L105.517375,30.6111288 L108.479084,30.6111288 L108.479084,23.6774125 C108.479084,22.6387635 108.971161,22.1678019 109.538275,22.1678019 C110.08718,22.1678019 110.395995,22.6201337 110.395995,23.3827635 L110.395995,30.6111288 L113.357264,30.6111288 L113.357264,23.6774125 C113.357264,22.6387635 113.849781,22.1678019 114.41807,22.1678019 C114.965213,22.1678019 115.276524,22.6201337 115.276524,23.3827635 L115.276524,30.6111288 L118.235884,30.6111288 L118.235884,22.6787058 C118.235884,20.6417971 117.339985,19.7405615 115.659788,19.7405615" id="Fill-19" fill="#171C20" mask="url(#mask-2)"></path>
                <polygon id="Fill-20" fill="#171C20" mask="url(#mask-2)" points="37.1055898 30.6130962 40.0371966 30.6130962 40.0371966 19.7405913 37.1055898 19.7405913"></polygon>
                <path d="M46.2282996,2.62017067 C46.2282996,2.62017067 45.0522208,0.202766827 41.553353,0.202766827 C38.253313,0.202766827 36.3314101,2.70840144 36.3314101,2.70840144 L36.3314101,0.552112981 L31.3400132,0.552112981 L31.3400132,14.7073389 L36.4179016,14.7073389 L36.4179016,6.60888702 C36.4179016,5.21209856 37.7947171,4.39700721 39.2868057,4.39700721 C40.9208931,4.39700721 41.553353,5.4447476 41.553353,6.55120913 L41.553353,14.7073389 L46.6591419,14.7073389 L46.6591419,6.87089663 C46.6591419,5.0959976 47.9205375,4.39700721 49.441995,4.39700721 C51.4202863,4.39700721 51.7075144,5.67754567 51.7075144,6.46238221 L51.7075144,14.7073389 L56.8426722,14.7073389 L56.8426722,4.71654567 C56.8426722,2.32894952 55.3212147,0.174598558 51.7075144,0.174598558 C48.0932268,0.174598558 46.2282996,2.62017067 46.2282996,2.62017067 Z" id="Fill-21" fill="#171C20" mask="url(#mask-2)"></path>
                <path d="M67.1165854,0.00882307692 C62.8614677,0.00882307692 57.9903367,1.57104423 57.9903367,7.58176538 C57.9903367,13.5914433 62.527543,15.2068712 67.193532,15.2068712 C71.1161934,15.2068712 76.3974617,14.0601692 76.3974617,7.86777019 C76.3974617,1.18011635 71.3731716,0.00882307692 67.1165854,0.00882307692 M67.193532,11.6162365 C65.6559216,11.6162365 63.4770405,10.990126 63.4770405,7.76448654 C63.4770405,4.53720769 65.2973269,3.62702981 67.2202578,3.62702981 C69.1428949,3.62702981 70.9878512,4.69429423 70.9878512,7.60665481 C70.9878512,10.5214 69.2183731,11.6162365 67.193532,11.6162365" id="Fill-22" fill="#171C20" mask="url(#mask-2)"></path>
                <polygon id="Fill-23" fill="#171C20" mask="url(#mask-2)" points="93.2127758 0.590430769 87.3758475 0.590430769 84.2479093 9.85913269 81.037004 0.590430769 75.3119712 0.590430769 81.3157152 14.7341808 87.1803972 14.7341808"></polygon>
                <polygon id="Fill-24" fill="#171C20" mask="url(#mask-2)" points="94.0779405 15.0761346 99.8304333 15.0761346 99.8304333 0.590490385 94.0779405 0.590490385"></polygon>
                <path d="M109.954932,1.49038462e-05 C103.242809,1.49038462e-05 100.95776,3.91525529 100.95776,7.66044279 C100.95776,11.404438 102.76718,15.2947889 110.170647,15.2947889 C118.025221,15.2947889 118.905555,10.486212 118.905555,10.486212 L113.383021,10.486212 C113.383021,10.486212 112.669502,12.1064091 110.288563,12.1064091 C107.38471,12.1064091 106.241965,10.1484909 106.241965,8.9403851 L119.121416,8.9403851 C119.121416,8.9403851 119.144911,8.52948606 119.144911,8.07134183 C119.144911,4.18128894 116.978659,1.49038462e-05 109.954932,1.49038462e-05 M106.266194,6.04084183 C106.266194,6.04084183 106.527431,3.16603894 110.050381,3.16603894 C113.573478,3.16603894 113.836624,6.04084183 113.836624,6.04084183 L106.266194,6.04084183" id="Fill-25" fill="#171C20" mask="url(#mask-2)"></path>
                <path d="M1.48534842,28.3438962 C0.837910316,28.3438962 0.380929733,27.8413385 0.380929733,27.2229779 L0.380929733,3.95285769 C0.380929733,3.29574712 0.875943083,2.83193942 1.48534842,2.83193942 L24.4509722,2.83193942 C25.0984103,2.83193942 25.5553909,3.33434808 25.5553909,3.95285769 L25.5553909,27.2614298 C25.5553909,27.9185404 25.0602307,28.3824971 24.4509722,28.3824971 L1.48534842,28.3824971 L1.48534842,28.3438962 Z" id="Fill-26" fill="#171C20" mask="url(#mask-2)"></path>
                <path d="M24.4508988,2.48396442 L1.485275,2.48396442 C0.647379369,2.48396442 -5.87378641e-05,3.17967596 -5.87378641e-05,3.99148846 L-5.87378641e-05,27.3002096 C-5.87378641e-05,28.0732721 0.647379369,28.8077337 1.485275,28.8077337 L24.4508988,28.8077337 C25.212582,28.8077337 25.9362325,28.1506231 25.9362325,27.3002096 L25.9362325,3.9528875 C25.8980529,3.17967596 25.212582,2.48396442 24.4508988,2.48396442 M24.4508988,3.17967596 C24.8698466,3.17967596 25.212582,3.52768077 25.212582,3.9528875 L25.212582,27.2614596 C25.212582,27.6868154 24.8698466,28.0346712 24.4508988,28.0346712 L1.485275,28.0346712 C1.06632718,28.0346712 0.723591748,27.6868154 0.723591748,27.2614596 L0.723591748,3.9528875 C0.723591748,3.52768077 1.06632718,3.17967596 1.485275,3.17967596 L24.4508988,3.17967596" id="Fill-27" fill="#FDB73B" mask="url(#mask-2)"></path>
                <polygon id="Fill-28" fill="#FFFFFF" mask="url(#mask-2)" points="3.23733738 25.9085481 6.09375971 25.9085481 6.09375971 23.0094519 3.23733738 23.0094519"></polygon>
                <polygon id="Fill-29" fill="#FFFFFF" mask="url(#mask-2)" points="19.6902536 25.9085481 22.546676 25.9085481 22.546676 23.0094519 19.6902536 23.0094519"></polygon>
                <polygon id="Fill-30" fill="#FFFFFF" mask="url(#mask-2)" points="14.2058993 25.9085481 17.0623216 25.9085481 17.0623216 23.0094519 14.2058993 23.0094519"></polygon>
                <polygon id="Fill-31" fill="#FFFFFF" mask="url(#mask-2)" points="8.75972451 25.9085481 11.6161468 25.9085481 11.6161468 23.0094519 8.75972451 23.0094519"></polygon>
                <polygon id="Fill-32" fill="#FFFFFF" mask="url(#mask-2)" points="3.23733738 8.20486538 6.09375971 8.20486538 6.09375971 5.30576923 3.23733738 5.30576923"></polygon>
                <polygon id="Fill-33" fill="#FFFFFF" mask="url(#mask-2)" points="19.6902536 8.20486538 22.546676 8.20486538 22.546676 5.30576923 19.6902536 5.30576923"></polygon>
                <polygon id="Fill-34" fill="#FFFFFF" mask="url(#mask-2)" points="14.2058993 8.20486538 17.0623216 8.20486538 17.0623216 5.30576923 14.2058993 5.30576923"></polygon>
                <polygon id="Fill-35" fill="#FFFFFF" mask="url(#mask-2)" points="8.75972451 8.20486538 11.6161468 8.20486538 11.6161468 5.30576923 8.75972451 5.30576923"></polygon>
                <path d="M18.7000214,10.0216144 C15.9578442,10.0216144 14.548576,11.8769942 14.548576,11.8769942 C14.548576,11.8769942 13.6346148,10.0216144 10.96865,10.0216144 C8.45496311,10.0216144 7.04584175,11.9543452 7.04584175,11.9543452 L7.04584175,10.3308692 L3.27531141,10.3308692 L3.27531141,21.0768404 L7.12205413,21.0768404 L7.12205413,14.9693933 C7.12205413,13.887076 8.18844005,13.2685663 9.29285874,13.2685663 C10.5497022,13.2685663 11.0448624,14.0417779 11.0448624,14.8920423 L11.0448624,21.0768404 L14.8914583,21.0768404 L14.8914583,15.1626962 C14.8914583,13.809725 15.8055663,13.3071673 16.9861973,13.3071673 C18.5095638,13.3071673 18.7380541,14.2349317 18.7380541,14.8534413 L18.7380541,21.1155904 L22.5847968,21.1155904 L22.5847968,13.5004702 C22.5466172,11.6450904 21.4421985,10.0216144 18.7000214,10.0216144" id="Fill-36" fill="#FDB73B" mask="url(#mask-2)"></path>
            </g>
        </g>
    </g>
</svg>
